<?xml version="1.0" encoding="UTF-8"?>
<svg width="14px" height="14px" viewBox="0 0 14 14" version="1.1" xmlns="http://www.w3.org/2000/svg" xmlns:xlink="http://www.w3.org/1999/xlink">
    <!-- Generator: Sketch 49.2 (51160) - http://www.bohemiancoding.com/sketch -->
    <title>放大 (3) copy 2</title>
    <desc>Created with Sketch.</desc>
    <defs></defs>
    <g id="Page-1" stroke="none" stroke-width="1" fill="none" fill-rule="evenodd">
        <g id="弹层1黑名单-copy-3" transform="translate(-1326.000000, -239.000000)" fill="#B5B5B5">
            <g id="放大-(3)-copy-2" transform="translate(1326.000000, 239.000000)">
                <path d="M12.2350731,0.00698060942 L1.75490483,0.00698060942 C0.790971034,0.00698060942 0,0.801238227 0,1.76917729 L0,6.3360277 C0,6.6007867 0,6.82004571 0,6.99380471 L1.05126953,6.99380471 C1.05126953,6.68665559 1.05126953,6.46739659 1.05126953,6.3360277 L1.05126953,1.74441551 C1.05126953,1.49619668 1.17481712,1.07519531 1.39734953,1.07519531 L12.6390274,1.07519531 C12.935615,1.07519531 12.9851074,1.52095845 12.9851074,1.74441551 L12.9851074,12.2431939 C12.9851074,12.4169529 12.457509,12.9836426 12.1855807,12.9836426 L7.01969655,12.9836426 L7.01969655,13.9806288 L12.2350731,13.9806288 C13.1990069,13.9806288 13.9899586,13.1863712 13.9899586,12.2184321 L13.9899586,1.74441551 C13.9652221,0.801238227 13.1990069,0.00698060942 12.2350731,0.00698060942 Z" id="Fill-1"></path>
                <path d="M5.16590345,7.70118283 L1.13697379,7.70118283 C0.519042759,7.70118283 0.0247365517,8.19752355 0.0247365517,8.81802216 L0.0247365517,12.8636925 C0.0247365517,13.4841911 0.519042759,13.9806288 1.13697379,13.9806288 L5.16590345,13.9806288 C5.78383448,13.9806288 6.27819862,13.4841911 6.27819862,12.8636925 L6.27819862,8.84288089 C6.30285793,8.22238227 5.78383448,7.70118283 5.16590345,7.70118283 Z M5.52108414,12.539098 C5.52108414,12.9075166 5.21541465,13.2452078 4.81789621,13.2452078 L1.48505727,13.2452078 C1.11806756,13.2452078 0.781773793,12.9381482 0.781773793,12.539098 L0.781773793,9.19231475 C0.781773793,8.8238961 1.08756272,8.48620499 1.48505727,8.48620499 L4.81789621,8.48620499 C5.18479037,8.48620499 5.52108414,8.79326451 5.52108414,9.19231475 L5.52108414,12.539098 Z" id="Fill-2"></path>
                <path d="M11.2216469,2.58827424 C11.0980221,2.46413573 10.9497186,2.3896759 10.7766786,2.3896759 L6.72308966,2.41451524 C6.37700966,2.41451524 6.08042207,2.71235457 6.08042207,3.05985319 C6.08042207,3.40729363 6.37700966,3.70513296 6.72308966,3.70513296 L9.12066207,3.70513296 L6.35235034,6.48494737 C6.22872552,6.60908587 6.15457379,6.75800554 6.15457379,6.93176454 C6.15457379,7.10544598 6.22872552,7.25444321 6.35235034,7.37850416 C6.47589793,7.50258449 6.62420138,7.57702493 6.79724138,7.57702493 C6.97028138,7.57702493 7.11858483,7.50258449 7.24213241,7.37850416 L10.1093517,4.47453186 L10.1093517,6.93176454 C10.1093517,7.27920499 10.4059393,7.57702493 10.7520193,7.57702493 C11.0980221,7.57702493 11.3946097,7.27920499 11.3946097,6.93176454 L11.3946097,3.03501385 C11.4193462,2.86125485 11.3452138,2.71235457 11.2216469,2.58827424 Z" id="Fill-3"></path>
            </g>
        </g>
    </g>
</svg>